<mxfile host="app.diagrams.net" modified="2022-02-24T17:16:02.420Z" agent="5.0 (Windows NT 10.0; Win64; x64) AppleWebKit/537.36 (KHTML, like Gecko) Chrome/98.0.4758.102 Safari/537.36" etag="AzNkJrr_o8GmbzmMkGyN" version="16.6.3" type="github">
  <diagram id="vvyx8xAc2KFOU6B6wJvY" name="Page-1">
    <mxGraphModel dx="1038" dy="547" grid="1" gridSize="10" guides="1" tooltips="1" connect="1" arrows="1" fold="1" page="1" pageScale="1" pageWidth="850" pageHeight="1100" math="0" shadow="0">
      <root>
        <mxCell id="0" />
        <mxCell id="1" parent="0" />
        <mxCell id="PuKwwD6AML6qGTBj3AOp-1" value="Object" style="html=1;" vertex="1" parent="1">
          <mxGeometry x="250" y="190" width="110" height="50" as="geometry" />
        </mxCell>
        <mxCell id="PuKwwD6AML6qGTBj3AOp-2" value="Object" style="html=1;" vertex="1" parent="1">
          <mxGeometry x="470" y="190" width="110" height="50" as="geometry" />
        </mxCell>
        <mxCell id="PuKwwD6AML6qGTBj3AOp-3" value="Object" style="html=1;" vertex="1" parent="1">
          <mxGeometry x="250" y="300" width="110" height="50" as="geometry" />
        </mxCell>
        <mxCell id="PuKwwD6AML6qGTBj3AOp-4" value="Object" style="html=1;" vertex="1" parent="1">
          <mxGeometry x="490" y="310" width="110" height="50" as="geometry" />
        </mxCell>
      </root>
    </mxGraphModel>
  </diagram>
</mxfile>
